<?xml version="1.0" encoding="utf-8"?>
<!-- Generator: Adobe Illustrator 25.0.1, SVG Export Plug-In . SVG Version: 6.00 Build 0)  -->
<svg version="1.1" id="Calque_1" xmlns="http://www.w3.org/2000/svg" xmlns:xlink="http://www.w3.org/1999/xlink" x="0px" y="0px"
	 viewBox="0 0 143.38 143.38" style="enable-background:new 0 0 143.38 143.38;" xml:space="preserve">
<style type="text/css">
	.st0{fill:url(#SVGID_1_);}
	.st1{fill:#FFFFFF;}
	.st2{fill:#E7511E;}
</style>
<linearGradient id="SVGID_1_" gradientUnits="userSpaceOnUse" x1="0" y1="71.69" x2="143.38" y2="71.69">
	<stop  offset="0" style="stop-color:#1C2D4D"/>
	<stop  offset="0.1046" style="stop-color:#1D3051"/>
	<stop  offset="0.2619" style="stop-color:#1F385C"/>
	<stop  offset="0.4524" style="stop-color:#214671"/>
	<stop  offset="0.667" style="stop-color:#1C5C92"/>
	<stop  offset="0.8377" style="stop-color:#0B72B5"/>
</linearGradient>
<path class="st0" d="M143.38,28.75v85.89c0,15.87-12.87,28.74-28.74,28.74H28.75c-1.02,0-2.02-0.05-3.01-0.16
	C11.27,141.72,0,129.49,0,114.64V28.75C0,12.87,12.87,0,28.75,0h85.89C130.51,0,143.38,12.87,143.38,28.75z"/>
<g>
	<path class="st1" d="M95.8,90.67c10.06-4.06,21-12.53,21-29.29v-0.35c0-7.77-2.82-14.3-7.94-19.41
		c-6.88-6.89-18.18-10.95-32.12-10.95h-51v112.55c0.99,0.11,1.99,0.16,3.01,0.16h6.17V96.14h41.82c24.35,0,37.59,8.83,37.59,24v0.36
		c0,11.04-6.78,19.14-18.31,22.88h17.59c6.45-5.74,10.07-13.53,10.07-22.88v-0.36C123.68,103.03,110.62,94.56,95.8,90.67z
		 M75.68,87.67H34.92V39.14h41.64c19.77,0,30.89,9.18,30.89,22.77v0.35C107.45,78.67,94.21,87.67,75.68,87.67z"/>
</g>
<polygon class="st2" points="53.67,35.04 87.41,54.53 87.41,15.56 "/>
</svg>
